<mxfile host="app.diagrams.net" modified="2021-12-21T14:06:53.283Z" agent="5.0 (Windows NT 10.0; Win64; x64) AppleWebKit/537.36 (KHTML, like Gecko) Chrome/96.0.4664.110 Safari/537.36" etag="HBJuIb-kW0DdkfNO15pq" version="16.0.0" type="github">
  <diagram id="8AyKx_o5aTShNxiJ5CQn" name="Page-1">
    <mxGraphModel dx="1038" dy="579" grid="1" gridSize="10" guides="1" tooltips="1" connect="1" arrows="1" fold="1" page="1" pageScale="1" pageWidth="1169" pageHeight="1654" math="0" shadow="0">
      <root>
        <mxCell id="0" />
        <mxCell id="1" parent="0" />
        <mxCell id="OW42SGyRE-5bfpf_GYGi-3" value="" style="edgeStyle=orthogonalEdgeStyle;rounded=0;orthogonalLoop=1;jettySize=auto;html=1;" parent="1" source="OW42SGyRE-5bfpf_GYGi-1" target="OW42SGyRE-5bfpf_GYGi-2" edge="1">
          <mxGeometry relative="1" as="geometry" />
        </mxCell>
        <mxCell id="OW42SGyRE-5bfpf_GYGi-1" value="前台用户选择商品和支付方式，点击确认" style="rounded=1;whiteSpace=wrap;html=1;" parent="1" vertex="1">
          <mxGeometry x="513" y="10" width="120" height="60" as="geometry" />
        </mxCell>
        <mxCell id="OW42SGyRE-5bfpf_GYGi-7" value="" style="edgeStyle=orthogonalEdgeStyle;rounded=0;orthogonalLoop=1;jettySize=auto;html=1;" parent="1" source="OW42SGyRE-5bfpf_GYGi-2" target="OW42SGyRE-5bfpf_GYGi-6" edge="1">
          <mxGeometry relative="1" as="geometry" />
        </mxCell>
        <mxCell id="OW42SGyRE-5bfpf_GYGi-2" value="根据商品信息，进入创建商户订单流程" style="whiteSpace=wrap;html=1;rounded=1;" parent="1" vertex="1">
          <mxGeometry x="513" y="150" width="120" height="60" as="geometry" />
        </mxCell>
        <mxCell id="OW42SGyRE-5bfpf_GYGi-5" value="提交订单" style="text;html=1;strokeColor=none;fillColor=none;align=center;verticalAlign=middle;whiteSpace=wrap;rounded=0;" parent="1" vertex="1">
          <mxGeometry x="579" y="90" width="60" height="30" as="geometry" />
        </mxCell>
        <mxCell id="OW42SGyRE-5bfpf_GYGi-9" value="" style="edgeStyle=orthogonalEdgeStyle;rounded=0;orthogonalLoop=1;jettySize=auto;html=1;" parent="1" source="OW42SGyRE-5bfpf_GYGi-6" target="OW42SGyRE-5bfpf_GYGi-8" edge="1">
          <mxGeometry relative="1" as="geometry" />
        </mxCell>
        <mxCell id="OW42SGyRE-5bfpf_GYGi-12" value="" style="edgeStyle=orthogonalEdgeStyle;rounded=0;orthogonalLoop=1;jettySize=auto;html=1;" parent="1" source="OW42SGyRE-5bfpf_GYGi-6" target="OW42SGyRE-5bfpf_GYGi-11" edge="1">
          <mxGeometry relative="1" as="geometry" />
        </mxCell>
        <mxCell id="OW42SGyRE-5bfpf_GYGi-6" value="判断该用户是否&lt;br&gt;存在同商品&lt;br&gt;并且未支付的订单" style="rhombus;whiteSpace=wrap;html=1;rounded=1;" parent="1" vertex="1">
          <mxGeometry x="503.5" y="270" width="139" height="139" as="geometry" />
        </mxCell>
        <mxCell id="OW42SGyRE-5bfpf_GYGi-15" value="" style="edgeStyle=orthogonalEdgeStyle;rounded=0;orthogonalLoop=1;jettySize=auto;html=1;" parent="1" source="OW42SGyRE-5bfpf_GYGi-8" edge="1">
          <mxGeometry relative="1" as="geometry">
            <mxPoint x="573" y="668.5" as="targetPoint" />
          </mxGeometry>
        </mxCell>
        <mxCell id="OW42SGyRE-5bfpf_GYGi-8" value="根据商品id，查询商品信息，存入订单信息表中，并返回订单信息" style="whiteSpace=wrap;html=1;rounded=1;" parent="1" vertex="1">
          <mxGeometry x="501.75" y="510" width="142.5" height="60" as="geometry" />
        </mxCell>
        <mxCell id="OW42SGyRE-5bfpf_GYGi-10" value="否" style="text;html=1;strokeColor=none;fillColor=none;align=center;verticalAlign=middle;whiteSpace=wrap;rounded=0;" parent="1" vertex="1">
          <mxGeometry x="573" y="450" width="60" height="30" as="geometry" />
        </mxCell>
        <mxCell id="OW42SGyRE-5bfpf_GYGi-11" value="直接返回之前的同商品未支付订单信息" style="whiteSpace=wrap;html=1;rounded=1;" parent="1" vertex="1">
          <mxGeometry x="732" y="309.5" width="120" height="60" as="geometry" />
        </mxCell>
        <mxCell id="OW42SGyRE-5bfpf_GYGi-13" value="是" style="text;html=1;strokeColor=none;fillColor=none;align=center;verticalAlign=middle;whiteSpace=wrap;rounded=0;" parent="1" vertex="1">
          <mxGeometry x="659" y="309.5" width="60" height="30" as="geometry" />
        </mxCell>
        <mxCell id="OW42SGyRE-5bfpf_GYGi-18" value="" style="edgeStyle=orthogonalEdgeStyle;rounded=0;orthogonalLoop=1;jettySize=auto;html=1;" parent="1" target="OW42SGyRE-5bfpf_GYGi-17" edge="1">
          <mxGeometry relative="1" as="geometry">
            <mxPoint x="573" y="728.5" as="sourcePoint" />
          </mxGeometry>
        </mxCell>
        <mxCell id="OW42SGyRE-5bfpf_GYGi-21" value="" style="edgeStyle=orthogonalEdgeStyle;rounded=0;orthogonalLoop=1;jettySize=auto;html=1;" parent="1" target="OW42SGyRE-5bfpf_GYGi-20" edge="1">
          <mxGeometry relative="1" as="geometry">
            <mxPoint x="642.5" y="733.5" as="sourcePoint" />
          </mxGeometry>
        </mxCell>
        <mxCell id="OW42SGyRE-5bfpf_GYGi-16" value="" style="curved=1;endArrow=classic;html=1;rounded=0;" parent="1" edge="1">
          <mxGeometry width="50" height="50" relative="1" as="geometry">
            <mxPoint x="792.5" y="370" as="sourcePoint" />
            <mxPoint x="589" y="620" as="targetPoint" />
            <Array as="points">
              <mxPoint x="809" y="630" />
            </Array>
          </mxGeometry>
        </mxCell>
        <mxCell id="OW42SGyRE-5bfpf_GYGi-29" value="" style="edgeStyle=orthogonalEdgeStyle;rounded=0;orthogonalLoop=1;jettySize=auto;html=1;" parent="1" source="OW42SGyRE-5bfpf_GYGi-17" target="OW42SGyRE-5bfpf_GYGi-28" edge="1">
          <mxGeometry relative="1" as="geometry" />
        </mxCell>
        <mxCell id="OW42SGyRE-5bfpf_GYGi-17" value="根据商户订单信息，构建微信支付平台下单请求的请求体" style="whiteSpace=wrap;html=1;rounded=1;" parent="1" vertex="1">
          <mxGeometry x="505" y="890" width="136" height="60" as="geometry" />
        </mxCell>
        <mxCell id="OW42SGyRE-5bfpf_GYGi-19" value="无" style="text;html=1;strokeColor=none;fillColor=none;align=center;verticalAlign=middle;whiteSpace=wrap;rounded=0;" parent="1" vertex="1">
          <mxGeometry x="579" y="750" width="60" height="30" as="geometry" />
        </mxCell>
        <mxCell id="OW42SGyRE-5bfpf_GYGi-20" value="返回之前的支付二维码和订单号" style="whiteSpace=wrap;html=1;rounded=1;" parent="1" vertex="1">
          <mxGeometry x="722.5" y="703.5" width="120" height="60" as="geometry" />
        </mxCell>
        <mxCell id="OW42SGyRE-5bfpf_GYGi-22" value="&lt;span&gt;判断订单对象中&lt;br&gt;是否有微信支付&lt;br&gt;二维码信息&lt;/span&gt;" style="rhombus;whiteSpace=wrap;html=1;" parent="1" vertex="1">
          <mxGeometry x="509" y="668.5" width="130" height="130" as="geometry" />
        </mxCell>
        <mxCell id="OW42SGyRE-5bfpf_GYGi-23" value="是" style="text;html=1;strokeColor=none;fillColor=none;align=center;verticalAlign=middle;whiteSpace=wrap;rounded=0;" parent="1" vertex="1">
          <mxGeometry x="659" y="703.5" width="60" height="30" as="geometry" />
        </mxCell>
        <mxCell id="OW42SGyRE-5bfpf_GYGi-31" value="" style="edgeStyle=orthogonalEdgeStyle;rounded=0;orthogonalLoop=1;jettySize=auto;html=1;" parent="1" source="OW42SGyRE-5bfpf_GYGi-28" target="OW42SGyRE-5bfpf_GYGi-30" edge="1">
          <mxGeometry relative="1" as="geometry" />
        </mxCell>
        <mxCell id="OW42SGyRE-5bfpf_GYGi-28" value="&lt;span style=&quot;&quot;&gt;1. 应用id&lt;/span&gt;&lt;br style=&quot;&quot;&gt;&lt;span style=&quot;&quot;&gt;2. 商户id&lt;/span&gt;&lt;br style=&quot;&quot;&gt;&lt;span style=&quot;&quot;&gt;3. 商品描述&lt;/span&gt;&lt;br style=&quot;&quot;&gt;&lt;span style=&quot;&quot;&gt;4. 商户订单号&lt;/span&gt;&lt;br style=&quot;&quot;&gt;&lt;span style=&quot;&quot;&gt;5.支付通知回调地址&lt;/span&gt;&lt;br style=&quot;&quot;&gt;&lt;span style=&quot;&quot;&gt;6. 订单金额，货币种类&lt;/span&gt;" style="whiteSpace=wrap;html=1;rounded=1;fillColor=#b0e3e6;strokeColor=#0e8088;sketch=1;align=center;" parent="1" vertex="1">
          <mxGeometry x="480" y="1030" width="186" height="110" as="geometry" />
        </mxCell>
        <mxCell id="OW42SGyRE-5bfpf_GYGi-41" value="" style="edgeStyle=orthogonalEdgeStyle;rounded=0;orthogonalLoop=1;jettySize=auto;html=1;" parent="1" source="OW42SGyRE-5bfpf_GYGi-30" target="OW42SGyRE-5bfpf_GYGi-40" edge="1">
          <mxGeometry relative="1" as="geometry" />
        </mxCell>
        <mxCell id="OW42SGyRE-5bfpf_GYGi-30" value="使用含有密钥签名信息的httpClient发送post请求到微信支付平台下单接口" style="whiteSpace=wrap;html=1;fillColor=none;strokeColor=#0e8088;rounded=1;sketch=0;" parent="1" vertex="1">
          <mxGeometry x="495" y="1220" width="156" height="60" as="geometry" />
        </mxCell>
        <mxCell id="OW42SGyRE-5bfpf_GYGi-37" value="" style="edgeStyle=orthogonalEdgeStyle;rounded=0;orthogonalLoop=1;jettySize=auto;html=1;" parent="1" source="OW42SGyRE-5bfpf_GYGi-38" target="OW42SGyRE-5bfpf_GYGi-39" edge="1">
          <mxGeometry relative="1" as="geometry" />
        </mxCell>
        <mxCell id="OW42SGyRE-5bfpf_GYGi-38" value="传入私钥文件路径，创建商户私钥对象" style="whiteSpace=wrap;html=1;fillColor=none;strokeColor=#0e8088;rounded=1;sketch=0;" parent="1" vertex="1">
          <mxGeometry x="200" y="10" width="120" height="60" as="geometry" />
        </mxCell>
        <mxCell id="OW42SGyRE-5bfpf_GYGi-51" value="" style="edgeStyle=orthogonalEdgeStyle;rounded=0;orthogonalLoop=1;jettySize=auto;html=1;" parent="1" source="OW42SGyRE-5bfpf_GYGi-39" target="OW42SGyRE-5bfpf_GYGi-50" edge="1">
          <mxGeometry relative="1" as="geometry" />
        </mxCell>
        <mxCell id="OW42SGyRE-5bfpf_GYGi-39" value="根据商户私钥序列号和商户私钥对象，初始化商户私钥签名器" style="whiteSpace=wrap;html=1;fillColor=none;strokeColor=#0e8088;rounded=1;sketch=0;" parent="1" vertex="1">
          <mxGeometry x="200" y="160" width="120" height="60" as="geometry" />
        </mxCell>
        <mxCell id="OW42SGyRE-5bfpf_GYGi-44" value="" style="edgeStyle=orthogonalEdgeStyle;rounded=0;orthogonalLoop=1;jettySize=auto;html=1;" parent="1" source="OW42SGyRE-5bfpf_GYGi-40" target="OW42SGyRE-5bfpf_GYGi-43" edge="1">
          <mxGeometry relative="1" as="geometry" />
        </mxCell>
        <mxCell id="OW42SGyRE-5bfpf_GYGi-40" value="获取微信支付平台响应内容，取出支付二维码url链接" style="whiteSpace=wrap;html=1;fillColor=none;strokeColor=#0e8088;rounded=1;sketch=0;" parent="1" vertex="1">
          <mxGeometry x="513" y="1360" width="120" height="60" as="geometry" />
        </mxCell>
        <mxCell id="OW42SGyRE-5bfpf_GYGi-42" value="微信支付平台下单成功" style="text;html=1;strokeColor=none;fillColor=none;align=center;verticalAlign=middle;whiteSpace=wrap;rounded=0;sketch=0;" parent="1" vertex="1">
          <mxGeometry x="583" y="1300" width="77" height="30" as="geometry" />
        </mxCell>
        <mxCell id="OW42SGyRE-5bfpf_GYGi-46" value="" style="edgeStyle=orthogonalEdgeStyle;rounded=0;orthogonalLoop=1;jettySize=auto;html=1;" parent="1" source="OW42SGyRE-5bfpf_GYGi-43" target="OW42SGyRE-5bfpf_GYGi-45" edge="1">
          <mxGeometry relative="1" as="geometry" />
        </mxCell>
        <mxCell id="OW42SGyRE-5bfpf_GYGi-43" value="将二维码链接返回给前端，前端将链接转为图片显示" style="whiteSpace=wrap;html=1;fillColor=none;strokeColor=#0e8088;rounded=1;sketch=0;" parent="1" vertex="1">
          <mxGeometry x="513" y="1500" width="120" height="60" as="geometry" />
        </mxCell>
        <mxCell id="OW42SGyRE-5bfpf_GYGi-48" value="" style="edgeStyle=orthogonalEdgeStyle;rounded=0;orthogonalLoop=1;jettySize=auto;html=1;" parent="1" source="OW42SGyRE-5bfpf_GYGi-45" target="OW42SGyRE-5bfpf_GYGi-47" edge="1">
          <mxGeometry relative="1" as="geometry" />
        </mxCell>
        <mxCell id="OW42SGyRE-5bfpf_GYGi-45" value="每隔3秒查询一次订单支付状态" style="whiteSpace=wrap;html=1;fillColor=none;strokeColor=#0e8088;rounded=1;sketch=0;" parent="1" vertex="1">
          <mxGeometry x="713" y="1500" width="120" height="60" as="geometry" />
        </mxCell>
        <mxCell id="OW42SGyRE-5bfpf_GYGi-47" value="关闭微信支付二维码弹框，提示支付成功，跳转到订单列表页" style="whiteSpace=wrap;html=1;fillColor=none;strokeColor=#0e8088;rounded=1;sketch=0;" parent="1" vertex="1">
          <mxGeometry x="713" y="1360" width="120" height="60" as="geometry" />
        </mxCell>
        <mxCell id="OW42SGyRE-5bfpf_GYGi-49" value="已支付" style="text;html=1;strokeColor=none;fillColor=none;align=center;verticalAlign=middle;whiteSpace=wrap;rounded=0;sketch=0;" parent="1" vertex="1">
          <mxGeometry x="783" y="1450" width="60" height="30" as="geometry" />
        </mxCell>
        <mxCell id="OW42SGyRE-5bfpf_GYGi-50" value="" style="whiteSpace=wrap;html=1;fillColor=none;strokeColor=#0e8088;rounded=1;sketch=0;" parent="1" vertex="1">
          <mxGeometry x="200" y="300" width="120" height="60" as="geometry" />
        </mxCell>
        <mxCell id="OW42SGyRE-5bfpf_GYGi-54" value="支付通知回调地址" style="rounded=1;whiteSpace=wrap;html=1;sketch=0;fillColor=none;" parent="1" vertex="1">
          <mxGeometry x="990" y="1055" width="120" height="60" as="geometry" />
        </mxCell>
      </root>
    </mxGraphModel>
  </diagram>
</mxfile>
